# File created by Blade
# Date/Time:  Thu Sep 25 17:14:50 2014
# Frame Rate: 120.000 fps
#------------------------------------------------------
:FULLY-SPECIFIED
:DEGREES
637
root -25.041467 32.839624 11.704805 232.342559 58.690825 158.921919
Spine 16.111153 1.102365 18.371752
Head -66.861946 -6.989550 5.516939
LeftShoulder 1.594504 0.069707 33.520348
LeftArm 41.851798 -26.866977 -33.205640
LeftForeArm 17.436060 0.000000 25.593610
LeftHand -32.457416 -0.000000 4.002349
LeftHandThumb1 -26.253704 0.000000 33.147579
RightShoulder 3.019967 28.123289 -35.843405
RightArm 18.276789 3.000895 48.923319
RightForeArm -0.951133 -0.000000 27.032845
RightHand -7.708456 -0.000000 -11.667163
RightHandThumb1 -24.326973 -0.000000 -32.862282
LeftUpLeg -27.011020 -1.153565 -5.047124
LeftLeg -1.833069 -0.000000 0.000000
LeftFoot -6.435893 11.129100 -33.585243
LeftToeBase -5.291679 -0.000000 0.000000
RightUpLeg -74.190585 -7.078942 2.113854
RightLeg 11.225113 -0.000000 -0.000000
RightFoot -12.069004 -5.254492 -10.398829
RightToeBase -1.164912 -0.000000 0.000000
638
root -25.367279 32.839639 11.714619 231.903675 59.062909 160.224338
Spine 15.631578 1.576546 18.183689
Head -65.078690 -7.781074 5.581236
LeftShoulder 1.922285 0.687112 32.956334
LeftArm 40.536076 -25.440244 -32.245572
LeftForeArm 16.688730 0.000000 24.454915
LeftHand -32.045451 -0.000000 3.287153
LeftHandThumb1 -26.253704 0.000000 33.147579
RightShoulder 1.974113 27.845770 -35.775597
RightArm 16.782792 2.015913 49.115869
RightForeArm -0.796452 -0.000000 26.028452
RightHand -7.572158 -0.000000 -11.261519
RightHandThumb1 -24.326973 -0.000000 -32.862282
LeftUpLeg -27.045544 -1.096524 -4.928382
LeftLeg -1.900933 -0.000000 0.000000
LeftFoot -6.355267 10.446057 -33.427709
LeftToeBase -5.292057 -0.000000 0.000000
RightUpLeg -73.153796 -6.873939 2.556166
RightLeg 11.057797 -0.000000 -0.000000
RightFoot -11.600966 -4.322512 -9.826961
RightToeBase -1.556063 -0.000000 0.000000
639
root -25.673156 32.838770 11.728439 231.653345 59.409381 161.666210
Spine 15.153867 2.102388 18.062508
Head -63.441918 -8.627234 5.707853
LeftShoulder 2.149340 0.928345 32.376317
LeftArm 39.080627 -24.035705 -31.433268
LeftForeArm 15.765088 0.000000 23.485830
LeftHand -31.505078 -0.000000 2.267855
LeftHandThumb1 -26.253704 0.000000 33.147579
RightShoulder 0.806262 27.368421 -35.763770
RightArm 15.534976 1.318821 49.306354
RightForeArm -0.799057 0.000000 25.065466
RightHand -7.689242 -0.000000 -11.072118
RightHandThumb1 -24.326973 -0.000000 -32.862282
LeftUpLeg -27.087606 -0.863952 -4.744267
LeftLeg -1.958660 -0.000000 0.000000
LeftFoot -6.202325 9.733725 -32.990274
LeftToeBase -4.812325 -0.000000 0.000000
RightUpLeg -72.100389 -6.552257 2.887815
RightLeg 10.836011 -0.000000 -0.000000
RightFoot -10.973855 -3.548301 -9.159297
RightToeBase -1.520442 -0.000000 0.000000
640
root -25.972515 32.828374 11.727465 231.503046 59.953954 163.197634
Spine 14.675754 2.679868 17.753909
Head -61.788138 -9.277510 5.841961
LeftShoulder 2.206642 1.301011 31.779149
LeftArm 37.804522 -22.949757 -30.811401
LeftForeArm 15.100810 -0.000000 22.555502
LeftHand -31.110756 -0.000000 1.786694
LeftHandThumb1 -26.253704 0.000000 33.147579
RightShoulder -0.179012 27.075226 -35.758299
RightArm 14.015323 0.780661 49.550004
RightForeArm -1.060622 -0.000000 24.306226
RightHand -7.966926 -0.000000 -10.870976
RightHandThumb1 -24.326973 -0.000000 -32.862282
LeftUpLeg -27.033234 -0.481524 -4.668245
LeftLeg -2.066600 -0.000000 0.000000
LeftFoot -6.076645 8.895818 -33.188497
LeftToeBase -4.961642 -0.000000 0.000000
RightUpLeg -70.967716 -6.046149 2.949500
RightLeg 10.493074 -0.000000 -0.000000
RightFoot -10.300441 -2.968703 -8.712144
RightToeBase -1.331024 -0.000000 0.000000
641
root -26.266484 32.817304 11.721940 231.273069 60.421113 164.679873
Spine 14.251285 3.062822 17.442441
Head -60.128040 -9.695705 6.138537
LeftShoulder 2.159658 0.617520 31.666115
LeftArm 35.902615 -21.478389 -31.044228
LeftForeArm 14.850841 -0.000000 21.999370
LeftHand -30.679333 -0.000000 1.001454
LeftHandThumb1 -26.253704 0.000000 33.147579
RightShoulder -0.769499 26.596282 -35.556978
RightArm 12.492325 0.613841 49.455509
RightForeArm -1.215219 -0.000000 23.607015
RightHand -8.247883 0.000000 -10.678554
RightHandThumb1 -24.326973 -0.000000 -32.862282
LeftUpLeg -26.872111 -0.221656 -4.495463
LeftLeg -2.183606 -0.000000 0.000000
LeftFoot -6.138608 8.359305 -33.253653
LeftToeBase -5.132077 -0.000000 0.000000
RightUpLeg -69.751849 -5.646105 3.178251
RightLeg 10.076740 -0.000000 -0.000000
RightFoot -9.566964 -2.341807 -8.153022
RightToeBase -1.745565 -0.000000 0.000000
642
root -26.538358 32.801122 11.705197 230.918333 60.887192 166.233803
Spine 14.139374 3.320072 17.265991
Head -58.600499 -10.041755 6.207846
LeftShoulder 1.933877 1.439722 30.896765
LeftArm 34.988030 -21.494907 -30.659182
LeftForeArm 14.594634 -0.000000 21.330266
LeftHand -30.498598 -0.000000 -0.006181
LeftHandThumb1 -26.253704 0.000000 33.147579
RightShoulder -1.428452 26.271051 -35.505641
RightArm 10.968980 0.502669 49.324743
RightForeArm -1.091245 -0.000000 23.065816
RightHand -8.469519 0.000000 -10.310571
RightHandThumb1 -24.326973 -0.000000 -32.862282
LeftUpLeg -26.401360 0.136391 -4.305273
LeftLeg -2.443699 -0.000000 0.000000
LeftFoot -6.170549 8.189285 -33.398996
LeftToeBase -5.890184 -0.000000 0.000000
RightUpLeg -68.198547 -5.271816 3.443318
RightLeg 9.457835 -0.000000 -0.000000
RightFoot -8.900400 -1.741143 -7.664802
RightToeBase -1.827704 -0.000000 0.000000
